# Blender v2.79 (sub 0) OBJ File: 'cylinder_bucket.blend'
# www.blender.org
mtllib cylinder_bucket.mtl
o Cylinder
v -0.022926 -0.654537 -0.862190
v 0.143709 -0.654537 -0.845778
v 0.303941 -0.654537 -0.797172
v 0.451611 -0.654537 -0.718241
v 0.581045 -0.654537 -0.612017
v 0.687268 -0.654537 -0.482583
v 0.766200 -0.654537 -0.334913
v 0.814805 -0.654537 -0.174682
v 0.831217 -0.654537 -0.008047
v 0.814805 -0.654537 0.158588
v 0.766200 -0.654537 0.318820
v 0.687268 -0.654537 0.466490
v 0.581045 -0.654537 0.595924
v 0.451611 -0.654537 0.702148
v 0.303940 -0.654537 0.781079
v 0.143709 -0.654537 0.829685
v -0.022926 -0.654537 0.846097
v -0.189561 -0.654537 0.829685
v -0.349793 -0.654537 0.781079
v -0.497463 -0.654537 0.702147
v -0.626897 -0.654537 0.595924
v -0.733121 -0.654537 0.466490
v -0.812052 -0.654537 0.318819
v -0.860657 -0.654537 0.158588
v -0.877069 -0.654537 -0.008047
v -0.860657 -0.654537 -0.174683
v -0.812051 -0.654537 -0.334914
v -0.733120 -0.654537 -0.482584
v -0.626896 -0.654537 -0.612018
v -0.497462 -0.654537 -0.718241
v -0.349791 -0.654537 -0.797173
v -0.189560 -0.654537 -0.845778
v 0.000000 -1.000000 -1.000000
v 0.000000 1.000000 -1.000000
v 0.195090 -1.000000 -0.980785
v 0.195090 1.000000 -0.980785
v 0.382683 -1.000000 -0.923880
v 0.382683 1.000000 -0.923880
v 0.555570 -1.000000 -0.831470
v 0.555570 1.000000 -0.831470
v 0.707107 -1.000000 -0.707107
v 0.707107 1.000000 -0.707107
v 0.831470 -1.000000 -0.555570
v 0.831470 1.000000 -0.555570
v 0.923880 -1.000000 -0.382683
v 0.923880 1.000000 -0.382683
v 0.980785 -1.000000 -0.195090
v 0.980785 1.000000 -0.195090
v 1.000000 -1.000000 -0.000000
v 1.000000 1.000000 -0.000000
v 0.980785 -1.000000 0.195090
v 0.980785 1.000000 0.195090
v 0.923880 -1.000000 0.382683
v 0.923880 1.000000 0.382683
v 0.831470 -1.000000 0.555570
v 0.831470 1.000000 0.555570
v 0.707107 -1.000000 0.707107
v 0.707107 1.000000 0.707107
v 0.555570 -1.000000 0.831470
v 0.555570 1.000000 0.831470
v 0.382683 -1.000000 0.923880
v 0.382683 1.000000 0.923880
v 0.195090 -1.000000 0.980785
v 0.195090 1.000000 0.980785
v -0.000000 -1.000000 1.000000
v -0.000000 1.000000 1.000000
v -0.195091 -1.000000 0.980785
v -0.195091 1.000000 0.980785
v -0.382684 -1.000000 0.923879
v -0.382684 1.000000 0.923879
v -0.555571 -1.000000 0.831469
v -0.555571 1.000000 0.831469
v -0.707107 -1.000000 0.707106
v -0.707107 1.000000 0.707106
v -0.831470 -1.000000 0.555570
v -0.831470 1.000000 0.555570
v -0.923880 -1.000000 0.382683
v -0.923880 1.000000 0.382683
v -0.980785 -1.000000 0.195089
v -0.980785 1.000000 0.195089
v -1.000000 -1.000000 -0.000001
v -1.000000 1.000000 -0.000001
v -0.980785 -1.000000 -0.195091
v -0.980785 1.000000 -0.195091
v -0.923879 -1.000000 -0.382684
v -0.923879 1.000000 -0.382684
v -0.831469 -1.000000 -0.555571
v -0.831469 1.000000 -0.555571
v -0.707106 -1.000000 -0.707108
v -0.707106 1.000000 -0.707108
v -0.555569 -1.000000 -0.831470
v -0.555569 1.000000 -0.831470
v -0.382682 -1.000000 -0.923880
v -0.382682 1.000000 -0.923880
v -0.195089 -1.000000 -0.980786
v -0.195089 1.000000 -0.980786
v 0.687268 1.000000 0.466490
v -0.022926 1.000000 -0.862190
v -0.189560 1.000000 -0.845778
v -0.349791 1.000000 -0.797173
v -0.812052 1.000000 0.318819
v -0.733121 1.000000 0.466490
v -0.860657 1.000000 0.158588
v -0.626897 1.000000 0.595924
v -0.189561 1.000000 0.829685
v -0.022926 1.000000 0.846097
v -0.349793 1.000000 0.781079
v 0.814805 1.000000 -0.174682
v 0.451611 1.000000 -0.718241
v 0.831217 1.000000 -0.008047
v 0.766200 1.000000 -0.334913
v 0.143709 1.000000 0.829685
v -0.626896 1.000000 -0.612018
v -0.497462 1.000000 -0.718241
v -0.733120 1.000000 -0.482584
v 0.814805 1.000000 0.158588
v 0.451611 1.000000 0.702148
v 0.581045 1.000000 0.595924
v 0.766200 1.000000 0.318820
v -0.877069 1.000000 -0.008047
v -0.497463 1.000000 0.702147
v -0.860657 1.000000 -0.174683
v 0.581045 1.000000 -0.612017
v 0.303940 1.000000 0.781079
v 0.687268 1.000000 -0.482583
v -0.812051 1.000000 -0.334914
v 0.303941 1.000000 -0.797172
v 0.143709 1.000000 -0.845778
vn -0.0980 0.0000 0.9952
vn -0.2903 0.0000 0.9569
vn -0.4714 0.0000 0.8819
vn -0.6344 0.0000 0.7730
vn -0.7730 0.0000 0.6344
vn -0.8819 0.0000 0.4714
vn -0.9569 0.0000 0.2903
vn -0.9952 0.0000 0.0980
vn -0.9952 0.0000 -0.0980
vn -0.9569 0.0000 -0.2903
vn -0.8819 0.0000 -0.4714
vn -0.7730 0.0000 -0.6344
vn -0.6344 0.0000 -0.7730
vn -0.4714 0.0000 -0.8819
vn -0.2903 0.0000 -0.9569
vn -0.0980 0.0000 -0.9952
vn 0.0980 0.0000 -0.9952
vn 0.2903 0.0000 -0.9569
vn 0.4714 0.0000 -0.8819
vn 0.6344 0.0000 -0.7730
vn 0.7730 0.0000 -0.6344
vn 0.8819 0.0000 -0.4714
vn 0.9569 0.0000 -0.2903
vn 0.9952 0.0000 -0.0980
vn 0.9952 0.0000 0.0980
vn 0.9569 0.0000 0.2903
vn 0.8819 0.0000 0.4714
vn 0.7730 0.0000 0.6344
vn 0.6344 0.0000 0.7730
vn 0.4714 0.0000 0.8819
vn 0.2903 0.0000 0.9569
vn 0.0980 0.0000 0.9952
vn 0.0000 1.0000 0.0000
vn 0.0000 -1.0000 -0.0000
usemtl None
s off
f 1//1 2//1 128//1 98//1
f 2//2 3//2 127//2 128//2
f 3//3 4//3 109//3 127//3
f 4//4 5//4 123//4 109//4
f 5//5 6//5 125//5 123//5
f 6//6 7//6 111//6 125//6
f 7//7 8//7 108//7 111//7
f 8//8 9//8 110//8 108//8
f 9//9 10//9 116//9 110//9
f 10//10 11//10 119//10 116//10
f 11//11 12//11 97//11 119//11
f 12//12 13//12 118//12 97//12
f 13//13 14//13 117//13 118//13
f 14//14 15//14 124//14 117//14
f 15//15 16//15 112//15 124//15
f 16//16 17//16 106//16 112//16
f 17//17 18//17 105//17 106//17
f 18//18 19//18 107//18 105//18
f 19//19 20//19 121//19 107//19
f 20//20 21//20 104//20 121//20
f 21//21 22//21 102//21 104//21
f 22//22 23//22 101//22 102//22
f 23//23 24//23 103//23 101//23
f 24//24 25//24 120//24 103//24
f 25//25 26//25 122//25 120//25
f 26//26 27//26 126//26 122//26
f 27//27 28//27 115//27 126//27
f 28//28 29//28 113//28 115//28
f 29//29 30//29 114//29 113//29
f 30//30 31//30 100//30 114//30
f 31//31 32//31 99//31 100//31
f 32//32 1//32 98//32 99//32
f 1//33 32//33 31//33 30//33 29//33 28//33 27//33 26//33 25//33 24//33 23//33 22//33 21//33 20//33 19//33 18//33 17//33 16//33 15//33 14//33 13//33 12//33 11//33 10//33 9//33 8//33 7//33 6//33 5//33 4//33 3//33 2//33
f 33//17 34//17 36//17 35//17
f 35//18 36//18 38//18 37//18
f 37//19 38//19 40//19 39//19
f 39//20 40//20 42//20 41//20
f 41//21 42//21 44//21 43//21
f 43//22 44//22 46//22 45//22
f 45//23 46//23 48//23 47//23
f 47//24 48//24 50//24 49//24
f 49//25 50//25 52//25 51//25
f 51//26 52//26 54//26 53//26
f 53//27 54//27 56//27 55//27
f 55//28 56//28 58//28 57//28
f 57//29 58//29 60//29 59//29
f 59//30 60//30 62//30 61//30
f 61//31 62//31 64//31 63//31
f 63//32 64//32 66//32 65//32
f 65//1 66//1 68//1 67//1
f 67//2 68//2 70//2 69//2
f 69//3 70//3 72//3 71//3
f 71//4 72//4 74//4 73//4
f 73//5 74//5 76//5 75//5
f 75//6 76//6 78//6 77//6
f 77//7 78//7 80//7 79//7
f 79//8 80//8 82//8 81//8
f 81//9 82//9 84//9 83//9
f 83//10 84//10 86//10 85//10
f 85//11 86//11 88//11 87//11
f 87//12 88//12 90//12 89//12
f 89//13 90//13 92//13 91//13
f 91//14 92//14 94//14 93//14
f 36//33 34//33 96//33 94//33 92//33 90//33 88//33 86//33 84//33 82//33 120//33 122//33 126//33 115//33 113//33 114//33 100//33 99//33 98//33 128//33 127//33 109//33 123//33 125//33 111//33 108//33 110//33 50//33 48//33 46//33 44//33 42//33 40//33 38//33
f 93//15 94//15 96//15 95//15
f 95//16 96//16 34//16 33//16
f 33//34 35//34 37//34 39//34 41//34 43//34 45//34 47//34 49//34 51//34 53//34 55//34 57//34 59//34 61//34 63//34 65//34 67//34 69//34 71//34 73//34 75//34 77//34 79//34 81//34 83//34 85//34 87//34 89//34 91//34 93//34 95//34
f 50//33 110//33 116//33 119//33 97//33 118//33 117//33 124//33 112//33 106//33 105//33 107//33 121//33 104//33 102//33 101//33 103//33 120//33 82//33 80//33 78//33 76//33 74//33 72//33 70//33 68//33 66//33 64//33 62//33 60//33 58//33 56//33 54//33 52//33
